<?xml version="1.0" encoding="utf-8"?>
<svg xmlns="http://www.w3.org/2000/svg" xmlns:xlink="http://www.w3.org/1999/xlink" style="margin: auto; background: none; display: block; shape-rendering: auto;" width="30px" height="30px" viewBox="0 0 100 100" preserveAspectRatio="xMidYMid">
<g transform="rotate(0 50 50)">
  <rect x="46" y="26" rx="4" ry="4" width="8" height="8" fill="#9771fe">
    <animate attributeName="opacity" values="1;0" keyTimes="0;1" dur="1s" begin="-0.9830508474576272s" repeatCount="indefinite"></animate>
  </rect>
</g><g transform="rotate(6.101694915254237 50 50)">
  <rect x="46" y="26" rx="4" ry="4" width="8" height="8" fill="#9771fe">
    <animate attributeName="opacity" values="1;0" keyTimes="0;1" dur="1s" begin="-0.9661016949152542s" repeatCount="indefinite"></animate>
  </rect>
</g><g transform="rotate(12.203389830508474 50 50)">
  <rect x="46" y="26" rx="4" ry="4" width="8" height="8" fill="#9771fe">
    <animate attributeName="opacity" values="1;0" keyTimes="0;1" dur="1s" begin="-0.9491525423728814s" repeatCount="indefinite"></animate>
  </rect>
</g><g transform="rotate(18.305084745762713 50 50)">
  <rect x="46" y="26" rx="4" ry="4" width="8" height="8" fill="#9771fe">
    <animate attributeName="opacity" values="1;0" keyTimes="0;1" dur="1s" begin="-0.9322033898305084s" repeatCount="indefinite"></animate>
  </rect>
</g><g transform="rotate(24.406779661016948 50 50)">
  <rect x="46" y="26" rx="4" ry="4" width="8" height="8" fill="#9771fe">
    <animate attributeName="opacity" values="1;0" keyTimes="0;1" dur="1s" begin="-0.9152542372881356s" repeatCount="indefinite"></animate>
  </rect>
</g><g transform="rotate(30.508474576271187 50 50)">
  <rect x="46" y="26" rx="4" ry="4" width="8" height="8" fill="#9771fe">
    <animate attributeName="opacity" values="1;0" keyTimes="0;1" dur="1s" begin="-0.8983050847457628s" repeatCount="indefinite"></animate>
  </rect>
</g><g transform="rotate(36.610169491525426 50 50)">
  <rect x="46" y="26" rx="4" ry="4" width="8" height="8" fill="#9771fe">
    <animate attributeName="opacity" values="1;0" keyTimes="0;1" dur="1s" begin="-0.8813559322033898s" repeatCount="indefinite"></animate>
  </rect>
</g><g transform="rotate(42.71186440677966 50 50)">
  <rect x="46" y="26" rx="4" ry="4" width="8" height="8" fill="#9771fe">
    <animate attributeName="opacity" values="1;0" keyTimes="0;1" dur="1s" begin="-0.864406779661017s" repeatCount="indefinite"></animate>
  </rect>
</g><g transform="rotate(48.813559322033896 50 50)">
  <rect x="46" y="26" rx="4" ry="4" width="8" height="8" fill="#9771fe">
    <animate attributeName="opacity" values="1;0" keyTimes="0;1" dur="1s" begin="-0.847457627118644s" repeatCount="indefinite"></animate>
  </rect>
</g><g transform="rotate(54.91525423728814 50 50)">
  <rect x="46" y="26" rx="4" ry="4" width="8" height="8" fill="#9771fe">
    <animate attributeName="opacity" values="1;0" keyTimes="0;1" dur="1s" begin="-0.8305084745762712s" repeatCount="indefinite"></animate>
  </rect>
</g><g transform="rotate(61.016949152542374 50 50)">
  <rect x="46" y="26" rx="4" ry="4" width="8" height="8" fill="#9771fe">
    <animate attributeName="opacity" values="1;0" keyTimes="0;1" dur="1s" begin="-0.8135593220338984s" repeatCount="indefinite"></animate>
  </rect>
</g><g transform="rotate(67.11864406779661 50 50)">
  <rect x="46" y="26" rx="4" ry="4" width="8" height="8" fill="#9771fe">
    <animate attributeName="opacity" values="1;0" keyTimes="0;1" dur="1s" begin="-0.7966101694915254s" repeatCount="indefinite"></animate>
  </rect>
</g><g transform="rotate(73.22033898305085 50 50)">
  <rect x="46" y="26" rx="4" ry="4" width="8" height="8" fill="#9771fe">
    <animate attributeName="opacity" values="1;0" keyTimes="0;1" dur="1s" begin="-0.7796610169491526s" repeatCount="indefinite"></animate>
  </rect>
</g><g transform="rotate(79.32203389830508 50 50)">
  <rect x="46" y="26" rx="4" ry="4" width="8" height="8" fill="#9771fe">
    <animate attributeName="opacity" values="1;0" keyTimes="0;1" dur="1s" begin="-0.7627118644067796s" repeatCount="indefinite"></animate>
  </rect>
</g><g transform="rotate(85.42372881355932 50 50)">
  <rect x="46" y="26" rx="4" ry="4" width="8" height="8" fill="#9771fe">
    <animate attributeName="opacity" values="1;0" keyTimes="0;1" dur="1s" begin="-0.7457627118644068s" repeatCount="indefinite"></animate>
  </rect>
</g><g transform="rotate(91.52542372881356 50 50)">
  <rect x="46" y="26" rx="4" ry="4" width="8" height="8" fill="#9771fe">
    <animate attributeName="opacity" values="1;0" keyTimes="0;1" dur="1s" begin="-0.7288135593220338s" repeatCount="indefinite"></animate>
  </rect>
</g><g transform="rotate(97.62711864406779 50 50)">
  <rect x="46" y="26" rx="4" ry="4" width="8" height="8" fill="#9771fe">
    <animate attributeName="opacity" values="1;0" keyTimes="0;1" dur="1s" begin="-0.711864406779661s" repeatCount="indefinite"></animate>
  </rect>
</g><g transform="rotate(103.72881355932203 50 50)">
  <rect x="46" y="26" rx="4" ry="4" width="8" height="8" fill="#9771fe">
    <animate attributeName="opacity" values="1;0" keyTimes="0;1" dur="1s" begin="-0.6949152542372882s" repeatCount="indefinite"></animate>
  </rect>
</g><g transform="rotate(109.83050847457628 50 50)">
  <rect x="46" y="26" rx="4" ry="4" width="8" height="8" fill="#9771fe">
    <animate attributeName="opacity" values="1;0" keyTimes="0;1" dur="1s" begin="-0.6779661016949152s" repeatCount="indefinite"></animate>
  </rect>
</g><g transform="rotate(115.9322033898305 50 50)">
  <rect x="46" y="26" rx="4" ry="4" width="8" height="8" fill="#9771fe">
    <animate attributeName="opacity" values="1;0" keyTimes="0;1" dur="1s" begin="-0.6610169491525424s" repeatCount="indefinite"></animate>
  </rect>
</g><g transform="rotate(122.03389830508475 50 50)">
  <rect x="46" y="26" rx="4" ry="4" width="8" height="8" fill="#9771fe">
    <animate attributeName="opacity" values="1;0" keyTimes="0;1" dur="1s" begin="-0.6440677966101694s" repeatCount="indefinite"></animate>
  </rect>
</g><g transform="rotate(128.135593220339 50 50)">
  <rect x="46" y="26" rx="4" ry="4" width="8" height="8" fill="#9771fe">
    <animate attributeName="opacity" values="1;0" keyTimes="0;1" dur="1s" begin="-0.6271186440677966s" repeatCount="indefinite"></animate>
  </rect>
</g><g transform="rotate(134.23728813559322 50 50)">
  <rect x="46" y="26" rx="4" ry="4" width="8" height="8" fill="#9771fe">
    <animate attributeName="opacity" values="1;0" keyTimes="0;1" dur="1s" begin="-0.6101694915254238s" repeatCount="indefinite"></animate>
  </rect>
</g><g transform="rotate(140.33898305084745 50 50)">
  <rect x="46" y="26" rx="4" ry="4" width="8" height="8" fill="#9771fe">
    <animate attributeName="opacity" values="1;0" keyTimes="0;1" dur="1s" begin="-0.5932203389830508s" repeatCount="indefinite"></animate>
  </rect>
</g><g transform="rotate(146.4406779661017 50 50)">
  <rect x="46" y="26" rx="4" ry="4" width="8" height="8" fill="#9771fe">
    <animate attributeName="opacity" values="1;0" keyTimes="0;1" dur="1s" begin="-0.576271186440678s" repeatCount="indefinite"></animate>
  </rect>
</g><g transform="rotate(152.54237288135593 50 50)">
  <rect x="46" y="26" rx="4" ry="4" width="8" height="8" fill="#9771fe">
    <animate attributeName="opacity" values="1;0" keyTimes="0;1" dur="1s" begin="-0.559322033898305s" repeatCount="indefinite"></animate>
  </rect>
</g><g transform="rotate(158.64406779661016 50 50)">
  <rect x="46" y="26" rx="4" ry="4" width="8" height="8" fill="#9771fe">
    <animate attributeName="opacity" values="1;0" keyTimes="0;1" dur="1s" begin="-0.5423728813559322s" repeatCount="indefinite"></animate>
  </rect>
</g><g transform="rotate(164.74576271186442 50 50)">
  <rect x="46" y="26" rx="4" ry="4" width="8" height="8" fill="#9771fe">
    <animate attributeName="opacity" values="1;0" keyTimes="0;1" dur="1s" begin="-0.5254237288135594s" repeatCount="indefinite"></animate>
  </rect>
</g><g transform="rotate(170.84745762711864 50 50)">
  <rect x="46" y="26" rx="4" ry="4" width="8" height="8" fill="#9771fe">
    <animate attributeName="opacity" values="1;0" keyTimes="0;1" dur="1s" begin="-0.5084745762711864s" repeatCount="indefinite"></animate>
  </rect>
</g><g transform="rotate(176.94915254237287 50 50)">
  <rect x="46" y="26" rx="4" ry="4" width="8" height="8" fill="#9771fe">
    <animate attributeName="opacity" values="1;0" keyTimes="0;1" dur="1s" begin="-0.4915254237288136s" repeatCount="indefinite"></animate>
  </rect>
</g><g transform="rotate(183.05084745762713 50 50)">
  <rect x="46" y="26" rx="4" ry="4" width="8" height="8" fill="#9771fe">
    <animate attributeName="opacity" values="1;0" keyTimes="0;1" dur="1s" begin="-0.4745762711864407s" repeatCount="indefinite"></animate>
  </rect>
</g><g transform="rotate(189.15254237288136 50 50)">
  <rect x="46" y="26" rx="4" ry="4" width="8" height="8" fill="#9771fe">
    <animate attributeName="opacity" values="1;0" keyTimes="0;1" dur="1s" begin="-0.4576271186440678s" repeatCount="indefinite"></animate>
  </rect>
</g><g transform="rotate(195.25423728813558 50 50)">
  <rect x="46" y="26" rx="4" ry="4" width="8" height="8" fill="#9771fe">
    <animate attributeName="opacity" values="1;0" keyTimes="0;1" dur="1s" begin="-0.4406779661016949s" repeatCount="indefinite"></animate>
  </rect>
</g><g transform="rotate(201.35593220338984 50 50)">
  <rect x="46" y="26" rx="4" ry="4" width="8" height="8" fill="#9771fe">
    <animate attributeName="opacity" values="1;0" keyTimes="0;1" dur="1s" begin="-0.423728813559322s" repeatCount="indefinite"></animate>
  </rect>
</g><g transform="rotate(207.45762711864407 50 50)">
  <rect x="46" y="26" rx="4" ry="4" width="8" height="8" fill="#9771fe">
    <animate attributeName="opacity" values="1;0" keyTimes="0;1" dur="1s" begin="-0.4067796610169492s" repeatCount="indefinite"></animate>
  </rect>
</g><g transform="rotate(213.5593220338983 50 50)">
  <rect x="46" y="26" rx="4" ry="4" width="8" height="8" fill="#9771fe">
    <animate attributeName="opacity" values="1;0" keyTimes="0;1" dur="1s" begin="-0.3898305084745763s" repeatCount="indefinite"></animate>
  </rect>
</g><g transform="rotate(219.66101694915255 50 50)">
  <rect x="46" y="26" rx="4" ry="4" width="8" height="8" fill="#9771fe">
    <animate attributeName="opacity" values="1;0" keyTimes="0;1" dur="1s" begin="-0.3728813559322034s" repeatCount="indefinite"></animate>
  </rect>
</g><g transform="rotate(225.76271186440678 50 50)">
  <rect x="46" y="26" rx="4" ry="4" width="8" height="8" fill="#9771fe">
    <animate attributeName="opacity" values="1;0" keyTimes="0;1" dur="1s" begin="-0.3559322033898305s" repeatCount="indefinite"></animate>
  </rect>
</g><g transform="rotate(231.864406779661 50 50)">
  <rect x="46" y="26" rx="4" ry="4" width="8" height="8" fill="#9771fe">
    <animate attributeName="opacity" values="1;0" keyTimes="0;1" dur="1s" begin="-0.3389830508474576s" repeatCount="indefinite"></animate>
  </rect>
</g><g transform="rotate(237.96610169491527 50 50)">
  <rect x="46" y="26" rx="4" ry="4" width="8" height="8" fill="#9771fe">
    <animate attributeName="opacity" values="1;0" keyTimes="0;1" dur="1s" begin="-0.3220338983050847s" repeatCount="indefinite"></animate>
  </rect>
</g><g transform="rotate(244.0677966101695 50 50)">
  <rect x="46" y="26" rx="4" ry="4" width="8" height="8" fill="#9771fe">
    <animate attributeName="opacity" values="1;0" keyTimes="0;1" dur="1s" begin="-0.3050847457627119s" repeatCount="indefinite"></animate>
  </rect>
</g><g transform="rotate(250.16949152542372 50 50)">
  <rect x="46" y="26" rx="4" ry="4" width="8" height="8" fill="#9771fe">
    <animate attributeName="opacity" values="1;0" keyTimes="0;1" dur="1s" begin="-0.288135593220339s" repeatCount="indefinite"></animate>
  </rect>
</g><g transform="rotate(256.271186440678 50 50)">
  <rect x="46" y="26" rx="4" ry="4" width="8" height="8" fill="#9771fe">
    <animate attributeName="opacity" values="1;0" keyTimes="0;1" dur="1s" begin="-0.2711864406779661s" repeatCount="indefinite"></animate>
  </rect>
</g><g transform="rotate(262.3728813559322 50 50)">
  <rect x="46" y="26" rx="4" ry="4" width="8" height="8" fill="#9771fe">
    <animate attributeName="opacity" values="1;0" keyTimes="0;1" dur="1s" begin="-0.2542372881355932s" repeatCount="indefinite"></animate>
  </rect>
</g><g transform="rotate(268.47457627118644 50 50)">
  <rect x="46" y="26" rx="4" ry="4" width="8" height="8" fill="#9771fe">
    <animate attributeName="opacity" values="1;0" keyTimes="0;1" dur="1s" begin="-0.23728813559322035s" repeatCount="indefinite"></animate>
  </rect>
</g><g transform="rotate(274.5762711864407 50 50)">
  <rect x="46" y="26" rx="4" ry="4" width="8" height="8" fill="#9771fe">
    <animate attributeName="opacity" values="1;0" keyTimes="0;1" dur="1s" begin="-0.22033898305084745s" repeatCount="indefinite"></animate>
  </rect>
</g><g transform="rotate(280.6779661016949 50 50)">
  <rect x="46" y="26" rx="4" ry="4" width="8" height="8" fill="#9771fe">
    <animate attributeName="opacity" values="1;0" keyTimes="0;1" dur="1s" begin="-0.2033898305084746s" repeatCount="indefinite"></animate>
  </rect>
</g><g transform="rotate(286.77966101694915 50 50)">
  <rect x="46" y="26" rx="4" ry="4" width="8" height="8" fill="#9771fe">
    <animate attributeName="opacity" values="1;0" keyTimes="0;1" dur="1s" begin="-0.1864406779661017s" repeatCount="indefinite"></animate>
  </rect>
</g><g transform="rotate(292.8813559322034 50 50)">
  <rect x="46" y="26" rx="4" ry="4" width="8" height="8" fill="#9771fe">
    <animate attributeName="opacity" values="1;0" keyTimes="0;1" dur="1s" begin="-0.1694915254237288s" repeatCount="indefinite"></animate>
  </rect>
</g><g transform="rotate(298.9830508474576 50 50)">
  <rect x="46" y="26" rx="4" ry="4" width="8" height="8" fill="#9771fe">
    <animate attributeName="opacity" values="1;0" keyTimes="0;1" dur="1s" begin="-0.15254237288135594s" repeatCount="indefinite"></animate>
  </rect>
</g><g transform="rotate(305.08474576271186 50 50)">
  <rect x="46" y="26" rx="4" ry="4" width="8" height="8" fill="#9771fe">
    <animate attributeName="opacity" values="1;0" keyTimes="0;1" dur="1s" begin="-0.13559322033898305s" repeatCount="indefinite"></animate>
  </rect>
</g><g transform="rotate(311.1864406779661 50 50)">
  <rect x="46" y="26" rx="4" ry="4" width="8" height="8" fill="#9771fe">
    <animate attributeName="opacity" values="1;0" keyTimes="0;1" dur="1s" begin="-0.11864406779661017s" repeatCount="indefinite"></animate>
  </rect>
</g><g transform="rotate(317.2881355932203 50 50)">
  <rect x="46" y="26" rx="4" ry="4" width="8" height="8" fill="#9771fe">
    <animate attributeName="opacity" values="1;0" keyTimes="0;1" dur="1s" begin="-0.1016949152542373s" repeatCount="indefinite"></animate>
  </rect>
</g><g transform="rotate(323.3898305084746 50 50)">
  <rect x="46" y="26" rx="4" ry="4" width="8" height="8" fill="#9771fe">
    <animate attributeName="opacity" values="1;0" keyTimes="0;1" dur="1s" begin="-0.0847457627118644s" repeatCount="indefinite"></animate>
  </rect>
</g><g transform="rotate(329.49152542372883 50 50)">
  <rect x="46" y="26" rx="4" ry="4" width="8" height="8" fill="#9771fe">
    <animate attributeName="opacity" values="1;0" keyTimes="0;1" dur="1s" begin="-0.06779661016949153s" repeatCount="indefinite"></animate>
  </rect>
</g><g transform="rotate(335.59322033898303 50 50)">
  <rect x="46" y="26" rx="4" ry="4" width="8" height="8" fill="#9771fe">
    <animate attributeName="opacity" values="1;0" keyTimes="0;1" dur="1s" begin="-0.05084745762711865s" repeatCount="indefinite"></animate>
  </rect>
</g><g transform="rotate(341.6949152542373 50 50)">
  <rect x="46" y="26" rx="4" ry="4" width="8" height="8" fill="#9771fe">
    <animate attributeName="opacity" values="1;0" keyTimes="0;1" dur="1s" begin="-0.03389830508474576s" repeatCount="indefinite"></animate>
  </rect>
</g><g transform="rotate(347.79661016949154 50 50)">
  <rect x="46" y="26" rx="4" ry="4" width="8" height="8" fill="#9771fe">
    <animate attributeName="opacity" values="1;0" keyTimes="0;1" dur="1s" begin="-0.01694915254237288s" repeatCount="indefinite"></animate>
  </rect>
</g><g transform="rotate(353.89830508474574 50 50)">
  <rect x="46" y="26" rx="4" ry="4" width="8" height="8" fill="#9771fe">
    <animate attributeName="opacity" values="1;0" keyTimes="0;1" dur="1s" begin="0s" repeatCount="indefinite"></animate>
  </rect>
</g>
<!-- [ldio] generated by https://loading.io/ --></svg>