<svg xmlns="http://www.w3.org/2000/svg" viewBox="0 0 100 100" preserveAspectRatio="xMidYMid" width="286" height="286" style="shape-rendering: auto; display: block; background: transparent;" xmlns:xlink="http://www.w3.org/1999/xlink"><g><g transform="rotate(0 50 50)">
  <rect x="45.5" y="25.5" rx="4.5" ry="4.5" width="9" height="9" fill="#ffffff">
    <animate attributeName="opacity" values="1;0" keyTimes="0;1" dur="1.0101010101010102s" begin="-0.9842009842009842s" repeatCount="indefinite"></animate>
  </rect>
</g><g transform="rotate(9.23076923076923 50 50)">
  <rect x="45.5" y="25.5" rx="4.5" ry="4.5" width="9" height="9" fill="#ffffff">
    <animate attributeName="opacity" values="1;0" keyTimes="0;1" dur="1.0101010101010102s" begin="-0.9583009583009583s" repeatCount="indefinite"></animate>
  </rect>
</g><g transform="rotate(18.46153846153846 50 50)">
  <rect x="45.5" y="25.5" rx="4.5" ry="4.5" width="9" height="9" fill="#ffffff">
    <animate attributeName="opacity" values="1;0" keyTimes="0;1" dur="1.0101010101010102s" begin="-0.9324009324009325s" repeatCount="indefinite"></animate>
  </rect>
</g><g transform="rotate(27.692307692307693 50 50)">
  <rect x="45.5" y="25.5" rx="4.5" ry="4.5" width="9" height="9" fill="#ffffff">
    <animate attributeName="opacity" values="1;0" keyTimes="0;1" dur="1.0101010101010102s" begin="-0.9065009065009065s" repeatCount="indefinite"></animate>
  </rect>
</g><g transform="rotate(36.92307692307692 50 50)">
  <rect x="45.5" y="25.5" rx="4.5" ry="4.5" width="9" height="9" fill="#ffffff">
    <animate attributeName="opacity" values="1;0" keyTimes="0;1" dur="1.0101010101010102s" begin="-0.8806008806008806s" repeatCount="indefinite"></animate>
  </rect>
</g><g transform="rotate(46.15384615384615 50 50)">
  <rect x="45.5" y="25.5" rx="4.5" ry="4.5" width="9" height="9" fill="#ffffff">
    <animate attributeName="opacity" values="1;0" keyTimes="0;1" dur="1.0101010101010102s" begin="-0.8547008547008547s" repeatCount="indefinite"></animate>
  </rect>
</g><g transform="rotate(55.38461538461539 50 50)">
  <rect x="45.5" y="25.5" rx="4.5" ry="4.5" width="9" height="9" fill="#ffffff">
    <animate attributeName="opacity" values="1;0" keyTimes="0;1" dur="1.0101010101010102s" begin="-0.8288008288008288s" repeatCount="indefinite"></animate>
  </rect>
</g><g transform="rotate(64.61538461538461 50 50)">
  <rect x="45.5" y="25.5" rx="4.5" ry="4.5" width="9" height="9" fill="#ffffff">
    <animate attributeName="opacity" values="1;0" keyTimes="0;1" dur="1.0101010101010102s" begin="-0.8029008029008029s" repeatCount="indefinite"></animate>
  </rect>
</g><g transform="rotate(73.84615384615384 50 50)">
  <rect x="45.5" y="25.5" rx="4.5" ry="4.5" width="9" height="9" fill="#ffffff">
    <animate attributeName="opacity" values="1;0" keyTimes="0;1" dur="1.0101010101010102s" begin="-0.777000777000777s" repeatCount="indefinite"></animate>
  </rect>
</g><g transform="rotate(83.07692307692308 50 50)">
  <rect x="45.5" y="25.5" rx="4.5" ry="4.5" width="9" height="9" fill="#ffffff">
    <animate attributeName="opacity" values="1;0" keyTimes="0;1" dur="1.0101010101010102s" begin="-0.7511007511007511s" repeatCount="indefinite"></animate>
  </rect>
</g><g transform="rotate(92.3076923076923 50 50)">
  <rect x="45.5" y="25.5" rx="4.5" ry="4.5" width="9" height="9" fill="#ffffff">
    <animate attributeName="opacity" values="1;0" keyTimes="0;1" dur="1.0101010101010102s" begin="-0.7252007252007252s" repeatCount="indefinite"></animate>
  </rect>
</g><g transform="rotate(101.53846153846153 50 50)">
  <rect x="45.5" y="25.5" rx="4.5" ry="4.5" width="9" height="9" fill="#ffffff">
    <animate attributeName="opacity" values="1;0" keyTimes="0;1" dur="1.0101010101010102s" begin="-0.6993006993006993s" repeatCount="indefinite"></animate>
  </rect>
</g><g transform="rotate(110.76923076923077 50 50)">
  <rect x="45.5" y="25.5" rx="4.5" ry="4.5" width="9" height="9" fill="#ffffff">
    <animate attributeName="opacity" values="1;0" keyTimes="0;1" dur="1.0101010101010102s" begin="-0.6734006734006734s" repeatCount="indefinite"></animate>
  </rect>
</g><g transform="rotate(120 50 50)">
  <rect x="45.5" y="25.5" rx="4.5" ry="4.5" width="9" height="9" fill="#ffffff">
    <animate attributeName="opacity" values="1;0" keyTimes="0;1" dur="1.0101010101010102s" begin="-0.6475006475006475s" repeatCount="indefinite"></animate>
  </rect>
</g><g transform="rotate(129.23076923076923 50 50)">
  <rect x="45.5" y="25.5" rx="4.5" ry="4.5" width="9" height="9" fill="#ffffff">
    <animate attributeName="opacity" values="1;0" keyTimes="0;1" dur="1.0101010101010102s" begin="-0.6216006216006216s" repeatCount="indefinite"></animate>
  </rect>
</g><g transform="rotate(138.46153846153845 50 50)">
  <rect x="45.5" y="25.5" rx="4.5" ry="4.5" width="9" height="9" fill="#ffffff">
    <animate attributeName="opacity" values="1;0" keyTimes="0;1" dur="1.0101010101010102s" begin="-0.5957005957005957s" repeatCount="indefinite"></animate>
  </rect>
</g><g transform="rotate(147.69230769230768 50 50)">
  <rect x="45.5" y="25.5" rx="4.5" ry="4.5" width="9" height="9" fill="#ffffff">
    <animate attributeName="opacity" values="1;0" keyTimes="0;1" dur="1.0101010101010102s" begin="-0.5698005698005698s" repeatCount="indefinite"></animate>
  </rect>
</g><g transform="rotate(156.92307692307693 50 50)">
  <rect x="45.5" y="25.5" rx="4.5" ry="4.5" width="9" height="9" fill="#ffffff">
    <animate attributeName="opacity" values="1;0" keyTimes="0;1" dur="1.0101010101010102s" begin="-0.5439005439005439s" repeatCount="indefinite"></animate>
  </rect>
</g><g transform="rotate(166.15384615384616 50 50)">
  <rect x="45.5" y="25.5" rx="4.5" ry="4.5" width="9" height="9" fill="#ffffff">
    <animate attributeName="opacity" values="1;0" keyTimes="0;1" dur="1.0101010101010102s" begin="-0.518000518000518s" repeatCount="indefinite"></animate>
  </rect>
</g><g transform="rotate(175.3846153846154 50 50)">
  <rect x="45.5" y="25.5" rx="4.5" ry="4.5" width="9" height="9" fill="#ffffff">
    <animate attributeName="opacity" values="1;0" keyTimes="0;1" dur="1.0101010101010102s" begin="-0.4921004921004921s" repeatCount="indefinite"></animate>
  </rect>
</g><g transform="rotate(184.6153846153846 50 50)">
  <rect x="45.5" y="25.5" rx="4.5" ry="4.5" width="9" height="9" fill="#ffffff">
    <animate attributeName="opacity" values="1;0" keyTimes="0;1" dur="1.0101010101010102s" begin="-0.46620046620046623s" repeatCount="indefinite"></animate>
  </rect>
</g><g transform="rotate(193.84615384615384 50 50)">
  <rect x="45.5" y="25.5" rx="4.5" ry="4.5" width="9" height="9" fill="#ffffff">
    <animate attributeName="opacity" values="1;0" keyTimes="0;1" dur="1.0101010101010102s" begin="-0.4403004403004403s" repeatCount="indefinite"></animate>
  </rect>
</g><g transform="rotate(203.07692307692307 50 50)">
  <rect x="45.5" y="25.5" rx="4.5" ry="4.5" width="9" height="9" fill="#ffffff">
    <animate attributeName="opacity" values="1;0" keyTimes="0;1" dur="1.0101010101010102s" begin="-0.4144004144004144s" repeatCount="indefinite"></animate>
  </rect>
</g><g transform="rotate(212.30769230769232 50 50)">
  <rect x="45.5" y="25.5" rx="4.5" ry="4.5" width="9" height="9" fill="#ffffff">
    <animate attributeName="opacity" values="1;0" keyTimes="0;1" dur="1.0101010101010102s" begin="-0.3885003885003885s" repeatCount="indefinite"></animate>
  </rect>
</g><g transform="rotate(221.53846153846155 50 50)">
  <rect x="45.5" y="25.5" rx="4.5" ry="4.5" width="9" height="9" fill="#ffffff">
    <animate attributeName="opacity" values="1;0" keyTimes="0;1" dur="1.0101010101010102s" begin="-0.3626003626003626s" repeatCount="indefinite"></animate>
  </rect>
</g><g transform="rotate(230.76923076923077 50 50)">
  <rect x="45.5" y="25.5" rx="4.5" ry="4.5" width="9" height="9" fill="#ffffff">
    <animate attributeName="opacity" values="1;0" keyTimes="0;1" dur="1.0101010101010102s" begin="-0.3367003367003367s" repeatCount="indefinite"></animate>
  </rect>
</g><g transform="rotate(240 50 50)">
  <rect x="45.5" y="25.5" rx="4.5" ry="4.5" width="9" height="9" fill="#ffffff">
    <animate attributeName="opacity" values="1;0" keyTimes="0;1" dur="1.0101010101010102s" begin="-0.3108003108003108s" repeatCount="indefinite"></animate>
  </rect>
</g><g transform="rotate(249.23076923076923 50 50)">
  <rect x="45.5" y="25.5" rx="4.5" ry="4.5" width="9" height="9" fill="#ffffff">
    <animate attributeName="opacity" values="1;0" keyTimes="0;1" dur="1.0101010101010102s" begin="-0.2849002849002849s" repeatCount="indefinite"></animate>
  </rect>
</g><g transform="rotate(258.46153846153845 50 50)">
  <rect x="45.5" y="25.5" rx="4.5" ry="4.5" width="9" height="9" fill="#ffffff">
    <animate attributeName="opacity" values="1;0" keyTimes="0;1" dur="1.0101010101010102s" begin="-0.259000259000259s" repeatCount="indefinite"></animate>
  </rect>
</g><g transform="rotate(267.6923076923077 50 50)">
  <rect x="45.5" y="25.5" rx="4.5" ry="4.5" width="9" height="9" fill="#ffffff">
    <animate attributeName="opacity" values="1;0" keyTimes="0;1" dur="1.0101010101010102s" begin="-0.23310023310023312s" repeatCount="indefinite"></animate>
  </rect>
</g><g transform="rotate(276.9230769230769 50 50)">
  <rect x="45.5" y="25.5" rx="4.5" ry="4.5" width="9" height="9" fill="#ffffff">
    <animate attributeName="opacity" values="1;0" keyTimes="0;1" dur="1.0101010101010102s" begin="-0.2072002072002072s" repeatCount="indefinite"></animate>
  </rect>
</g><g transform="rotate(286.15384615384613 50 50)">
  <rect x="45.5" y="25.5" rx="4.5" ry="4.5" width="9" height="9" fill="#ffffff">
    <animate attributeName="opacity" values="1;0" keyTimes="0;1" dur="1.0101010101010102s" begin="-0.1813001813001813s" repeatCount="indefinite"></animate>
  </rect>
</g><g transform="rotate(295.38461538461536 50 50)">
  <rect x="45.5" y="25.5" rx="4.5" ry="4.5" width="9" height="9" fill="#ffffff">
    <animate attributeName="opacity" values="1;0" keyTimes="0;1" dur="1.0101010101010102s" begin="-0.1554001554001554s" repeatCount="indefinite"></animate>
  </rect>
</g><g transform="rotate(304.61538461538464 50 50)">
  <rect x="45.5" y="25.5" rx="4.5" ry="4.5" width="9" height="9" fill="#ffffff">
    <animate attributeName="opacity" values="1;0" keyTimes="0;1" dur="1.0101010101010102s" begin="-0.1295001295001295s" repeatCount="indefinite"></animate>
  </rect>
</g><g transform="rotate(313.84615384615387 50 50)">
  <rect x="45.5" y="25.5" rx="4.5" ry="4.5" width="9" height="9" fill="#ffffff">
    <animate attributeName="opacity" values="1;0" keyTimes="0;1" dur="1.0101010101010102s" begin="-0.1036001036001036s" repeatCount="indefinite"></animate>
  </rect>
</g><g transform="rotate(323.0769230769231 50 50)">
  <rect x="45.5" y="25.5" rx="4.5" ry="4.5" width="9" height="9" fill="#ffffff">
    <animate attributeName="opacity" values="1;0" keyTimes="0;1" dur="1.0101010101010102s" begin="-0.0777000777000777s" repeatCount="indefinite"></animate>
  </rect>
</g><g transform="rotate(332.3076923076923 50 50)">
  <rect x="45.5" y="25.5" rx="4.5" ry="4.5" width="9" height="9" fill="#ffffff">
    <animate attributeName="opacity" values="1;0" keyTimes="0;1" dur="1.0101010101010102s" begin="-0.0518000518000518s" repeatCount="indefinite"></animate>
  </rect>
</g><g transform="rotate(341.53846153846155 50 50)">
  <rect x="45.5" y="25.5" rx="4.5" ry="4.5" width="9" height="9" fill="#ffffff">
    <animate attributeName="opacity" values="1;0" keyTimes="0;1" dur="1.0101010101010102s" begin="-0.0259000259000259s" repeatCount="indefinite"></animate>
  </rect>
</g><g transform="rotate(350.7692307692308 50 50)">
  <rect x="45.5" y="25.5" rx="4.5" ry="4.5" width="9" height="9" fill="#ffffff">
    <animate attributeName="opacity" values="1;0" keyTimes="0;1" dur="1.0101010101010102s" begin="0s" repeatCount="indefinite"></animate>
  </rect>
</g><g></g></g><!-- [ldio] generated by https://loading.io --></svg>